<?xml version="1.0" encoding="UTF-8" standalone="no"?>
<!DOCTYPE svg PUBLIC "-//W3C//DTD SVG 1.1//EN"
 "http://www.w3.org/Graphics/SVG/1.1/DTD/svg11.dtd">
<!-- Generated by graphviz version 2.40.1 (20161225.0304)
 -->
<!-- Title: G Pages: 1 -->
<svg width="162pt" height="274pt"
 viewBox="0.00 0.00 162.47 274.00" xmlns="http://www.w3.org/2000/svg" xmlns:xlink="http://www.w3.org/1999/xlink">
<g id="graph0" class="graph" transform="scale(1 1) rotate(0) translate(4 270)">
<title>G</title>
<polygon fill="#ffffff" stroke="transparent" points="-4,4 -4,-270 158.4675,-270 158.4675,4 -4,4"/>
<!-- A0 -->
<g id="node1" class="node">
<title>A0</title>
<ellipse fill="none" stroke="#000000" cx="69.5695" cy="-248" rx="11" ry="11"/>
</g>
<!-- A1 -->
<g id="node2" class="node">
<title>A1</title>
<path fill="none" stroke="#000000" d="M127.2086,-182C127.2086,-182 11.9304,-182 11.9304,-182 5.9304,-182 -.0696,-176 -.0696,-170 -.0696,-170 -.0696,-158 -.0696,-158 -.0696,-152 5.9304,-146 11.9304,-146 11.9304,-146 127.2086,-146 127.2086,-146 133.2086,-146 139.2086,-152 139.2086,-158 139.2086,-158 139.2086,-170 139.2086,-170 139.2086,-176 133.2086,-182 127.2086,-182"/>
<text text-anchor="middle" x="69.5695" y="-161" font-family="Helvetica,sans-Serif" font-size="10.00" fill="#000000">{Activity.setContentView}</text>
</g>
<!-- A0&#45;&gt;A1 -->
<g id="edge1" class="edge">
<title>A0&#45;&gt;A1</title>
<path fill="none" stroke="#000000" d="M69.5695,-236.6714C69.5695,-225.4283 69.5695,-207.7377 69.5695,-192.6261"/>
<polygon fill="#000000" stroke="#000000" points="69.5695,-182.2073 74.0696,-192.2073 69.5695,-187.2073 69.5696,-192.2073 69.5696,-192.2073 69.5696,-192.2073 69.5695,-187.2073 65.0696,-192.2074 69.5695,-182.2073 69.5695,-182.2073"/>
<text text-anchor="middle" x="83.186" y="-203" font-family="Helvetica,sans-Serif" font-size="10.00" fill="#000000">[启动]</text>
</g>
<!-- A2 -->
<g id="node3" class="node">
<title>A2</title>
<path fill="none" stroke="#000000" d="M108.4251,-109C108.4251,-109 30.7139,-109 30.7139,-109 24.7139,-109 18.7139,-103 18.7139,-97 18.7139,-97 18.7139,-85 18.7139,-85 18.7139,-79 24.7139,-73 30.7139,-73 30.7139,-73 108.4251,-73 108.4251,-73 114.4251,-73 120.4251,-79 120.4251,-85 120.4251,-85 120.4251,-97 120.4251,-97 120.4251,-103 114.4251,-109 108.4251,-109"/>
<text text-anchor="middle" x="69.5695" y="-88" font-family="Helvetica,sans-Serif" font-size="10.00" fill="#000000">{Activity.onStart}</text>
</g>
<!-- A1&#45;&gt;A2 -->
<g id="edge2" class="edge">
<title>A1&#45;&gt;A2</title>
<path fill="none" stroke="#000000" d="M69.5695,-145.9551C69.5695,-137.8828 69.5695,-128.1764 69.5695,-119.1817"/>
<polygon fill="#000000" stroke="#000000" points="69.5695,-109.0904 74.0696,-119.0903 69.5695,-114.0904 69.5696,-119.0904 69.5696,-119.0904 69.5696,-119.0904 69.5695,-114.0904 65.0696,-119.0904 69.5695,-109.0904 69.5695,-109.0904"/>
</g>
<!-- A3 -->
<g id="node4" class="node">
<title>A3</title>
<path fill="none" stroke="#000000" d="M116.5354,-36C116.5354,-36 22.6036,-36 22.6036,-36 16.6036,-36 10.6036,-30 10.6036,-24 10.6036,-24 10.6036,-12 10.6036,-12 10.6036,-6 16.6036,0 22.6036,0 22.6036,0 116.5354,0 116.5354,0 122.5354,0 128.5354,-6 128.5354,-12 128.5354,-12 128.5354,-24 128.5354,-24 128.5354,-30 122.5354,-36 116.5354,-36"/>
<text text-anchor="middle" x="69.5695" y="-15" font-family="Helvetica,sans-Serif" font-size="10.00" fill="#000000">{Activity.onResume}</text>
</g>
<!-- A2&#45;&gt;A3 -->
<g id="edge3" class="edge">
<title>A2&#45;&gt;A3</title>
<path fill="none" stroke="#000000" d="M69.5695,-72.9551C69.5695,-64.8828 69.5695,-55.1764 69.5695,-46.1817"/>
<polygon fill="#000000" stroke="#000000" points="69.5695,-36.0904 74.0696,-46.0903 69.5695,-41.0904 69.5696,-46.0904 69.5696,-46.0904 69.5696,-46.0904 69.5695,-41.0904 65.0696,-46.0904 69.5695,-36.0904 69.5695,-36.0904"/>
</g>
<!-- A4 -->
<g id="node5" class="node">
<title>A4</title>
<path fill="none" stroke="#000000" d="M142.3659,-266C142.3659,-266 110.7731,-266 110.7731,-266 104.7731,-266 98.7731,-260 98.7731,-254 98.7731,-254 98.7731,-242 98.7731,-242 98.7731,-236 104.7731,-230 110.7731,-230 110.7731,-230 142.3659,-230 142.3659,-230 148.3659,-230 154.3659,-236 154.3659,-242 154.3659,-242 154.3659,-254 154.3659,-254 154.3659,-260 148.3659,-266 142.3659,-266"/>
<text text-anchor="middle" x="126.5695" y="-245" font-family="Helvetica,sans-Serif" font-size="10.00" fill="#000000">{back}</text>
</g>
</g>
</svg>
